<svg xmlns="http://www.w3.org/2000/svg" viewBox="0 0 1200 630" role="img" aria-labelledby="title desc">
  <title id="title">SimpleClaw.ru</title>
  <desc id="desc">Быстрый запуск OpenClaw в РФ</desc>
  <defs>
    <linearGradient id="bg" x1="0%" x2="100%" y1="0%" y2="100%">
      <stop offset="0%" stop-color="#f7eeed" />
      <stop offset="100%" stop-color="#f1dedd" />
    </linearGradient>
  </defs>
  <rect width="1200" height="630" fill="url(#bg)" />

  <g fill="none" stroke="#cf3b32" stroke-width="5" stroke-linecap="round" stroke-linejoin="round" opacity="0.26">
    <path d="M74 140c34-44 77-69 127-69s93 25 127 69" />
    <path d="M35 86l56-36 13 55M367 86l-56-36-13 55" />
    <path d="M914 540c34-44 77-69 127-69s93 25 127 69" />
    <path d="M875 486l56-36 13 55M1207 486l-56-36-13 55" />
  </g>

  <rect x="110" y="130" width="980" height="370" rx="16" fill="#fff9f8" stroke="#cf3b32" stroke-opacity="0.24" />
  <text x="170" y="250" fill="#2e1515" font-family="Geist Sans, Inter, Arial, sans-serif" font-size="72" font-weight="700">
    SimpleClaw.ru
  </text>
  <text x="170" y="325" fill="#cf3b32" font-family="Geist Sans, Inter, Arial, sans-serif" font-size="50" font-weight="700">
    OpenClaw за 1 минуту
  </text>
  <text x="170" y="382" fill="#744f4f" font-family="Geist Sans, Inter, Arial, sans-serif" font-size="34">
    Быстрая установка в РФ и вход через Telegram
  </text>

  <g transform="translate(885 195)">
    <rect width="135" height="135" rx="22" fill="#cf3b32" />
    <path
      d="M28 92c12-16 25-25 39.5-25S95 76 107 92"
      fill="none"
      stroke="#fff"
      stroke-width="7"
      stroke-linecap="round"
      stroke-linejoin="round"
    />
    <path
      d="M20 56l24-15 6 24M115 56l-24-15-6 24"
      fill="none"
      stroke="#fff"
      stroke-width="7"
      stroke-linecap="round"
      stroke-linejoin="round"
    />
  </g>
</svg>
